<?xml version="1.0" standalone="no"?>
<!DOCTYPE svg PUBLIC "-//W3C//DTD SVG 20010904//EN"
 "http://www.w3.org/TR/2001/REC-SVG-20010904/DTD/svg10.dtd">
<svg version="1.0" xmlns="http://www.w3.org/2000/svg"
 width="150.000000pt" height="150.000000pt" viewBox="0 0 150.000000 150.000000"
 preserveAspectRatio="xMidYMid meet">
<metadata>
Created by potrace 1.14, written by Peter Selinger 2001-2017
</metadata>
<g transform="translate(0.000000,150.000000) scale(0.100000,-0.100000)"
fill="#000000" stroke="none">
<path d="M654 1491 c-11 -5 -47 -27 -81 -48 -33 -22 -115 -59 -182 -82 -136
-48 -155 -64 -202 -166 -63 -139 -171 -517 -186 -650 -5 -48 4 -55 97 -78 95
-24 100 -21 127 59 30 87 69 239 78 299 4 25 10 43 13 40 10 -9 5 -120 -14
-315 -8 -83 -32 -234 -54 -337 -11 -51 -20 -101 -20 -110 0 -14 21 -24 88 -45
114 -36 220 -60 245 -56 20 3 23 10 31 73 3 24 9 31 37 37 51 11 147 13 210 4
l57 -7 6 -50 c4 -31 13 -52 22 -56 8 -3 43 0 77 7 72 15 248 69 260 79 4 4 -3
64 -17 132 -14 68 -30 162 -36 209 -6 47 -13 96 -15 110 -4 23 -12 132 -19
283 -3 50 3 69 10 34 2 -7 6 -25 9 -40 12 -58 64 -254 82 -307 16 -50 21 -55
48 -55 48 0 175 37 175 51 0 25 -50 245 -80 355 -64 234 -123 384 -171 435
-11 12 -48 32 -82 44 -157 55 -202 75 -260 114 -59 39 -66 41 -147 43 -47 2
-94 -1 -106 -6z"/>
</g>
</svg>
